<?xml version="1.0" encoding="utf-8"?>
<!-- Generator: Adobe Illustrator 16.0.0, SVG Export Plug-In . SVG Version: 6.00 Build 0)  -->
<!DOCTYPE svg PUBLIC "-//W3C//DTD SVG 1.1//EN" "http://www.w3.org/Graphics/SVG/1.1/DTD/svg11.dtd">
<svg version="1.1" id="Layer_1" xmlns="http://www.w3.org/2000/svg" xmlns:xlink="http://www.w3.org/1999/xlink" x="0px" y="0px"
	 width="197.992px" height="103.496px" viewBox="0 0 197.992 103.496" enable-background="new 0 0 197.992 103.496"
	 xml:space="preserve">
<g>
	<path d="M10.125,41.58c-0.404-0.508-0.606-1.178-0.606-2.01l0.52-12.894c0.023-0.901,0.185-1.577,0.485-2.028
		c0.3-0.451,0.843-0.676,1.629-0.676h49.981c0.739,0,1.271,0.231,1.594,0.693c0.324,0.462,0.497,1.132,0.52,2.011l0.52,12.894
		c0,0.832-0.203,1.502-0.607,2.01s-0.988,0.763-1.75,0.763c-0.809,0-1.462-0.173-1.958-0.52s-0.792-0.947-0.884-1.802l-1.075-9.948
		H40.817v47.208h9.185c0.878,0,1.508,0.317,1.889,0.953c0.381,0.636,0.572,1.381,0.572,2.235c0,0.763-0.22,1.438-0.659,2.028
		c-0.439,0.589-1.063,0.884-1.872,0.884H23.66c-0.809,0-1.438-0.295-1.889-0.884c-0.451-0.59-0.676-1.266-0.676-2.028
		c0-0.854,0.196-1.6,0.589-2.235c0.393-0.636,1.028-0.953,1.906-0.953h9.15V30.073H15.757l-1.04,9.948
		c-0.093,0.878-0.387,1.484-0.884,1.82c-0.497,0.335-1.15,0.502-1.958,0.502C11.112,42.343,10.529,42.088,10.125,41.58z"/>
	<path d="M70.123,78.303c0.427-0.612,1.092-0.918,1.993-0.918h4.748V49.31l-4.956,1.352c-0.046,0.023-0.11,0.041-0.191,0.052
		c-0.081,0.011-0.179,0.017-0.294,0.017c-0.693,0-1.34-0.283-1.941-0.849c-0.601-0.566-0.901-1.207-0.901-1.924
		c0-0.739,0.167-1.369,0.502-1.889s0.826-0.861,1.473-1.022l11.091-2.773c0.069-0.023,0.15-0.041,0.243-0.052
		c0.093-0.011,0.197-0.017,0.312-0.017c0.508,0,0.93,0.145,1.265,0.433c0.335,0.289,0.502,0.688,0.502,1.196v33.552h5.338
		c0.878,0,1.514,0.317,1.906,0.953c0.393,0.635,0.589,1.38,0.589,2.235c0,0.763-0.225,1.421-0.676,1.976s-1.08,0.832-1.889,0.832
		H72.323c-0.97,0-1.687-0.26-2.149-0.78c-0.462-0.52-0.693-1.219-0.693-2.097C69.481,79.649,69.695,78.916,70.123,78.303z
		 M76.431,32.101c-1.028-1.028-1.542-2.271-1.542-3.726c0-1.456,0.514-2.698,1.542-3.726s2.271-1.542,3.726-1.542
		c1.456,0,2.692,0.514,3.709,1.542c1.017,1.028,1.525,2.27,1.525,3.726c0,1.456-0.508,2.698-1.525,3.726
		c-1.017,1.028-2.253,1.542-3.709,1.542C78.701,33.643,77.459,33.129,76.431,32.101z"/>
	<path d="M128.908,44.335c3.223,1.421,4.835,4.292,4.835,8.613c0,1.363-0.266,2.514-0.798,3.449
		c-0.531,0.936-1.386,1.403-2.564,1.403c-1.733,0-2.842-1.011-3.327-3.032c-0.485-2.022-0.948-3.958-1.387-5.806
		c-1.132-0.3-2.247-0.52-3.345-0.659s-2.178-0.208-3.241-0.208c-4.459,0-8.191,1.3-11.195,3.899s-4.506,6.176-4.506,10.728
		c0,4.922,1.474,8.59,4.419,11.005c2.946,2.415,6.303,3.622,10.069,3.622c1.964,0,3.939-0.375,5.927-1.127
		c1.987-0.75,3.802-1.854,5.442-3.31c0.323-0.277,0.67-0.497,1.039-0.658c0.37-0.162,0.751-0.243,1.145-0.243
		c0.947,0,1.738,0.237,2.374,0.711s0.953,1.138,0.953,1.993c0,2.957-1.987,5.285-5.962,6.983s-7.475,2.548-10.502,2.548
		c-6.632,0-12.057-1.912-16.273-5.736s-6.325-9.087-6.325-15.788c0-6.562,2.305-11.623,6.915-15.181
		c4.609-3.559,10.022-5.338,16.238-5.338C122.328,42.204,125.684,42.915,128.908,44.335z"/>
	<path d="M158.75,50.471c-2.045,1.583-3.657,3.322-4.836,5.216v21.594h5.685c0.901,0,1.479,0.307,1.733,0.919s0.381,1.346,0.381,2.2
		c0,0.693-0.185,1.363-0.555,2.011c-0.369,0.646-0.912,0.971-1.629,0.971h-16.949c-0.993,0-1.681-0.26-2.062-0.78
		c-0.382-0.52-0.572-1.23-0.572-2.132c0-0.854,0.173-1.6,0.52-2.235s0.971-0.953,1.872-0.953h4.471V30.558l-8.145,2.149
		c-0.093,0-0.15,0-0.174,0c-0.022,0-0.081,0-0.173,0c-0.717,0-1.357-0.315-1.924-0.946c-0.566-0.631-0.85-1.302-0.85-2.014
		c0-0.986,0.26-1.634,0.78-1.943c0.52-0.31,1.161-0.58,1.924-0.809l13.344-3.82c0.047-0.022,0.11-0.04,0.191-0.051
		c0.08-0.012,0.179-0.018,0.294-0.018c0.485,0,0.913,0.156,1.283,0.468c0.369,0.312,0.554,0.722,0.554,1.23v23.777
		c1.341-1.594,3.154-3.056,5.442-4.384c2.287-1.329,4.853-1.993,7.694-1.993c4.321,0,7.759,1.271,10.312,3.812
		c2.554,2.542,3.83,5.985,3.83,10.329v20.936h5.649c0.901,0,1.485,0.307,1.751,0.919s0.398,1.346,0.398,2.2
		c0,0.693-0.19,1.363-0.572,2.011c-0.381,0.646-0.93,0.971-1.646,0.971h-16.948c-0.994,0-1.682-0.26-2.062-0.78
		c-0.382-0.52-0.572-1.23-0.572-2.132c0-0.854,0.179-1.6,0.537-2.235s0.988-0.953,1.89-0.953h4.54V56.97
		c0-2.75-0.699-4.917-2.097-6.5c-1.398-1.583-3.495-2.375-6.291-2.375C163.134,48.096,160.795,48.888,158.75,50.471z"/>
</g>
</svg>
