<?xml version="1.0" encoding="utf-8"?>
<!-- Generator: Adobe Illustrator 16.0.0, SVG Export Plug-In . SVG Version: 6.00 Build 0)  -->
<!DOCTYPE svg PUBLIC "-//W3C//DTD SVG 1.1//EN" "http://www.w3.org/Graphics/SVG/1.1/DTD/svg11.dtd">
<svg version="1.1" id="Layer_1" xmlns="http://www.w3.org/2000/svg" xmlns:xlink="http://www.w3.org/1999/xlink" x="0px" y="0px"
	 width="116.334px" height="149.333px" viewBox="0 0 116.334 149.333" enable-background="new 0 0 116.334 149.333"
	 xml:space="preserve">
<g>
	
		<path fill="#3F3F3F" stroke="#000000" stroke-width="3" stroke-linecap="round" stroke-linejoin="round" stroke-miterlimit="10" d="
		M112.834,70V53.053c0-13.252,0-12.053-15-12.053v57c15,0,15-1.5,15-14.754V70"/>
	
		<path fill="#3F3F3F" stroke="#000000" stroke-width="3" stroke-linecap="round" stroke-linejoin="round" stroke-miterlimit="10" d="
		M116.334,51.5"/>
	<rect x="6.334" y="10" fill="#3F3F3F" width="21" height="126"/>
	<path fill="none" stroke="#000000" stroke-width="6" stroke-linecap="round" stroke-linejoin="round" stroke-miterlimit="10" d="
		M99.334,70V35.953C99.334,6.5,100.086,7,63.986,7H9.334v126h54.652c36.1,0,35.348-0.5,35.348-29.953V70"/>
	
		<line fill="none" stroke="#000000" stroke-width="3" stroke-linecap="round" stroke-linejoin="round" stroke-miterlimit="10" x1="28.834" y1="7" x2="28.834" y2="133"/>
	
		<rect x="37.834" y="23.5" fill="none" stroke="#000000" stroke-width="3" stroke-linecap="round" stroke-linejoin="round" stroke-miterlimit="10" width="48" height="18"/>
	
		<polygon fill="#3F3F3F" stroke="#000000" stroke-width="3" stroke-linecap="round" stroke-linejoin="round" stroke-miterlimit="10" points="
		49.834,146 39.334,140 28.834,146 28.834,134.5 49.834,134.5 	"/>
	<line fill="none" stroke="#000000" stroke-width="3" stroke-miterlimit="10" x1="45.334" y1="116.5" x2="78.334" y2="116.5"/>
	<line fill="none" stroke="#000000" stroke-width="3" stroke-miterlimit="10" x1="45.334" y1="110.5" x2="78.334" y2="110.5"/>
	<line fill="none" stroke="#000000" stroke-width="3" stroke-miterlimit="10" x1="45.334" y1="104.5" x2="78.334" y2="104.5"/>
</g>
</svg>
